<?xml version="1.0" standalone="no"?>
<!DOCTYPE svg PUBLIC "-//W3C//DTD SVG 20010904//EN"
 "http://www.w3.org/TR/2001/REC-SVG-20010904/DTD/svg10.dtd">
<svg version="1.0" xmlns="http://www.w3.org/2000/svg"
 width="1563.000000pt" height="1563.000000pt" viewBox="0 0 1563.000000 1563.000000"
 preserveAspectRatio="xMidYMid meet">
<metadata>
Created by potrace 1.14, written by Peter Selinger 2001-2017
</metadata>
<g transform="translate(0.000000,1563.000000) scale(0.100000,-0.100000)"
fill="#000000" stroke="none">
<path d="M4483 13857 c-40 -15 -52 -27 -26 -27 29 0 83 20 83 31 0 12 -17 10
-57 -4z"/>
<path d="M4484 13764 c-18 -14 -18 -15 6 -8 31 8 50 24 29 24 -8 0 -24 -7 -35
-16z"/>
<path d="M3106 13684 c-3 -8 -11 -12 -17 -8 -8 4 -9 3 -5 -4 9 -15 36 -4 36
14 0 19 -6 18 -14 -2z"/>
<path d="M3003 13628 c-20 -26 -23 -37 -13 -43 6 -4 10 -3 9 2 -3 20 2 34 11
28 6 -3 10 1 10 9 0 19 -4 20 -17 4z"/>
<path d="M2950 13594 c0 -8 5 -12 10 -9 6 4 8 11 5 16 -9 14 -15 11 -15 -7z"/>
<path d="M4369 13563 c-47 -50 -127 -163 -115 -163 2 0 35 39 72 88 36 48 71
93 77 100 20 26 0 10 -34 -25z"/>
<path d="M2691 13375 c1 -19 18 -51 18 -35 0 8 -4 22 -9 30 -5 8 -9 11 -9 5z"/>
<path d="M3284 13343 c5 -10 -6 -13 -41 -14 -47 -2 -47 -2 -13 -9 19 -4 31 -8
27 -9 -4 0 -2 -7 5 -15 7 -8 16 -12 20 -10 4 3 12 -4 18 -13 9 -15 10 -10 6
21 -3 22 -11 44 -17 50 -9 8 -10 8 -5 -1z"/>
<path d="M4188 13303 c-9 -10 -35 -53 -59 -97 -24 -43 -78 -115 -119 -159 -42
-46 -61 -72 -44 -59 46 32 90 85 159 192 84 129 105 170 63 123z"/>
<path d="M3415 13243 c-25 -14 -27 -18 -12 -21 11 -2 16 -9 13 -18 -9 -23 8
-16 37 14 40 42 18 56 -38 25z"/>
<path d="M3525 13220 l-20 -9 20 0 c11 0 29 4 40 9 l20 9 -20 0 c-11 0 -29 -4
-40 -9z"/>
<path d="M3497 13172 c-26 -29 -20 -33 18 -15 24 12 31 19 23 25 -19 11 -23
10 -41 -10z"/>
<path d="M3895 13032 c-31 -64 -45 -102 -40 -102 8 0 67 131 62 136 -2 2 -12
-13 -22 -34z"/>
<path d="M4000 12979 l-45 -40 42 26 c23 15 44 33 47 41 7 19 7 19 -44 -27z"/>
<path d="M3243 12933 c-9 -16 -22 -35 -27 -43 -9 -12 -8 -13 4 -3 17 13 54 73
46 73 -3 0 -13 -12 -23 -27z"/>
<path d="M3844 12908 c3 -17 46 -23 46 -8 0 7 -8 10 -20 7 -10 -3 -21 -1 -24
4 -2 5 -3 4 -2 -3z"/>
<path d="M3400 12890 c8 -5 22 -9 30 -9 10 0 8 3 -5 9 -27 12 -43 12 -25 0z"/>
<path d="M3190 12850 c-6 -11 -8 -20 -6 -20 3 0 10 9 16 20 6 11 8 20 6 20 -3
0 -10 -9 -16 -20z"/>
<path d="M3136 12748 c-21 -46 -53 -93 -85 -126 -28 -29 -51 -55 -51 -58 0
-10 58 36 103 81 42 41 47 54 60 131 2 11 7 26 11 32 4 7 4 12 1 12 -3 0 -21
-33 -39 -72z"/>
<path d="M2455 12790 c-13 -14 -16 -28 -11 -55 9 -44 -8 -46 -23 -3 -11 30
-13 31 -28 15 -14 -14 -14 -18 -3 -32 12 -15 12 -17 -6 -13 -12 1 -22 0 -22
-4 -5 -21 0 -28 17 -28 27 0 115 41 105 49 -5 3 -15 17 -22 29 -12 21 -11 27
4 43 9 10 15 19 12 19 -3 0 -13 -9 -23 -20z"/>
<path d="M4455 12767 c-97 -52 -285 -192 -285 -211 0 -3 39 25 88 61 48 36
129 90 180 120 50 31 92 57 92 59 0 9 -18 2 -75 -29z"/>
<path d="M2490 12651 c-12 -5 -11 -10 8 -28 19 -19 22 -20 22 -5 0 26 -13 40
-30 33z"/>
<path d="M2583 12603 c-7 -2 -13 -9 -13 -14 0 -14 26 -10 40 6 10 12 10 15 -1
14 -8 0 -20 -3 -26 -6z"/>
<path d="M4307 12539 c-32 -22 -57 -42 -57 -45 0 -3 27 14 60 37 54 38 67 49
57 49 -2 0 -29 -18 -60 -41z"/>
<path d="M2630 12560 c-8 -5 -10 -10 -5 -10 6 0 17 5 25 10 8 5 11 10 5 10 -5
0 -17 -5 -25 -10z"/>
<path d="M4205 12464 l-30 -26 33 22 c17 12 32 23 32 26 0 7 -4 5 -35 -22z"/>
<path d="M3515 12460 c-16 -7 -17 -9 -3 -9 9 -1 20 4 23 9 7 11 7 11 -20 0z"/>
<path d="M3272 12443 c-7 -3 -18 -17 -25 -32 l-11 -26 -4 28 c-3 23 -6 26 -18
16 -8 -6 -14 -18 -14 -25 0 -8 -5 -14 -12 -14 -25 0 8 -18 45 -24 28 -5 37 -4
32 4 -4 7 7 27 26 46 28 29 30 34 13 33 -10 0 -25 -3 -32 -6z"/>
<path d="M3312 12405 c-20 -19 -32 -35 -26 -35 5 0 25 16 44 35 44 45 31 45
-18 0z"/>
<path d="M846 12355 c4 -8 11 -15 16 -15 6 0 5 6 -2 15 -7 8 -14 15 -16 15 -2
0 -1 -7 2 -15z"/>
<path d="M817 12346 c-3 -8 -2 -27 3 -43 8 -26 8 -25 9 15 1 43 -3 52 -12 28z"/>
<path d="M4156 12295 c-62 -47 -81 -64 -56 -50 23 13 120 87 120 91 0 7 -4 4
-64 -41z"/>
<path d="M771 12303 c0 -7 -7 -12 -13 -10 -7 1 -14 -9 -15 -23 -2 -22 -2 -23
6 -5 9 19 10 18 11 -5 l1 -25 10 24 c5 14 8 32 6 40 -3 9 -5 10 -6 4z"/>
<path d="M716 12265 c-3 -9 -6 -22 -5 -28 0 -7 5 -1 10 12 5 13 8 26 5 28 -2
2 -6 -3 -10 -12z"/>
<path d="M4158 12242 c-53 -35 -92 -66 -58 -47 42 24 120 76 120 80 0 7 0 7
-62 -33z"/>
<path d="M2945 12205 c-27 -14 -39 -22 -26 -19 34 9 91 33 91 39 0 9 -15 5
-65 -20z"/>
<path d="M828 12163 c6 -2 18 -2 25 0 6 3 1 5 -13 5 -14 0 -19 -2 -12 -5z"/>
<path d="M4035 12120 c-13 -6 -15 -9 -5 -9 8 0 22 4 30 9 18 12 2 12 -25 0z"/>
<path d="M4020 12076 c-131 -37 -170 -49 -166 -53 5 -5 206 46 226 57 22 14
-4 12 -60 -4z"/>
<path d="M520 12056 c0 -7 6 -19 14 -25 11 -9 12 -6 8 14 -5 26 -22 35 -22 11z"/>
<path d="M3062 12045 c-29 -16 -49 -35 -36 -35 5 0 23 11 39 25 33 27 32 30
-3 10z"/>
<path d="M2957 12014 c-15 -8 -31 -12 -36 -10 -5 3 -11 0 -14 -8 -8 -21 42
-11 67 13 24 25 21 26 -17 5z"/>
<path d="M502 12003 c3 -12 1 -24 -6 -27 -10 -4 -7 -5 21 -6 14 -1 11 30 -5
42 -13 11 -15 10 -10 -9z"/>
<path d="M1220 11941 c0 -6 4 -13 10 -16 6 -3 7 1 4 9 -7 18 -14 21 -14 7z"/>
<path d="M1150 11910 c0 -9 49 -24 69 -21 8 1 10 -2 5 -10 -4 -7 -3 -10 3 -6
5 3 20 -7 32 -24 13 -17 25 -28 28 -25 4 3 12 1 20 -5 21 -18 15 -1 -17 46
-22 32 -35 42 -49 38 -10 -2 -35 0 -55 5 -20 6 -36 7 -36 2z"/>
<path d="M2550 11888 c0 -11 -5 -15 -15 -12 -8 4 -15 1 -15 -5 0 -13 19 -14
37 -3 8 5 9 13 3 22 -8 13 -10 12 -10 -2z"/>
<path d="M2756 11838 c-9 -5 -16 -13 -16 -18 0 -10 53 -5 76 8 14 8 11 10 -14
14 -17 2 -38 0 -46 -4z"/>
<path d="M2828 11813 c7 -3 16 -2 19 1 4 3 -2 6 -13 5 -11 0 -14 -3 -6 -6z"/>
<path d="M1910 11779 c-6 -11 -10 -25 -7 -32 2 -6 9 3 15 21 12 36 8 42 -8 11z"/>
<path d="M1433 11764 c-46 -20 -42 -37 7 -32 29 2 41 -1 46 -12 4 -13 8 -12
20 5 38 50 37 55 -3 54 -21 0 -53 -7 -70 -15z"/>
<path d="M1600 11740 l-25 -8 25 0 c14 0 36 4 50 8 l25 8 -25 0 c-14 0 -36 -4
-50 -8z"/>
<path d="M3047 11711 c-66 -39 -72 -48 -10 -17 28 14 54 30 58 36 8 14 7 13
-48 -19z"/>
<path d="M1906 11712 c-4 -6 4 -33 18 -59 30 -57 33 -47 7 21 -10 27 -21 44
-25 38z"/>
<path d="M1595 11684 c-23 -36 -13 -40 42 -16 39 17 43 21 23 22 -15 0 -32 -6
-39 -12 -11 -11 -11 -9 -2 10 16 31 -3 28 -24 -4z"/>
<path d="M1960 11655 c0 -21 130 -228 139 -220 2 3 -20 42 -49 87 -29 46 -61
99 -71 118 -14 26 -18 30 -19 15z"/>
<path d="M1446 11568 c-3 -13 -12 -55 -21 -95 -21 -98 -19 -99 19 -12 22 49
32 84 29 102 -6 33 -21 35 -27 5z"/>
<path d="M587 11433 c-3 -5 -1 -17 3 -27 6 -17 7 -18 13 -3 3 9 2 17 -4 17 -6
0 -7 5 -4 10 3 6 4 10 1 10 -3 0 -7 -3 -9 -7z"/>
<path d="M1401 11364 c0 -11 3 -14 6 -6 3 7 2 16 -1 19 -3 4 -6 -2 -5 -13z"/>
<path d="M1620 11358 c0 -14 8 -18 38 -17 34 2 34 2 7 6 -16 3 -33 10 -37 16
-5 8 -8 6 -8 -5z"/>
<path d="M522 11348 c-17 -17 -15 -42 8 -71 20 -26 26 -47 13 -47 -5 0 -21 20
-38 44 -29 43 -30 43 -44 23 -13 -19 -12 -22 7 -35 30 -20 28 -34 -3 -20 -34
15 -43 3 -15 -22 29 -25 51 -25 101 1 33 16 38 23 27 32 -7 7 -24 24 -36 39
-20 22 -22 30 -13 47 13 24 11 27 -7 9z"/>
<path d="M2985 11334 c-9 -14 -49 -60 -88 -102 -40 -42 -58 -66 -42 -54 46 36
169 182 152 182 -3 0 -12 -12 -22 -26z"/>
<path d="M1490 11346 c0 -2 8 -10 18 -17 15 -13 16 -12 3 4 -13 16 -21 21 -21
13z"/>
<path d="M1391 11324 c0 -11 3 -14 6 -6 3 7 2 16 -1 19 -3 4 -6 -2 -5 -13z"/>
<path d="M2211 11305 c0 -31 2 -36 9 -23 6 10 7 25 1 40 -9 20 -10 18 -10 -17z"/>
<path d="M1715 11319 c-16 -6 -14 -8 13 -8 33 -1 41 4 20 12 -7 2 -22 1 -33
-4z"/>
<path d="M1428 11270 c-27 -37 -36 -38 -41 -2 -2 15 -5 -3 -6 -40 0 -40 -9
-88 -21 -118 -32 -81 -23 -94 23 -33 22 30 27 47 27 93 0 44 5 63 25 90 14 19
25 35 25 37 0 10 -12 -1 -32 -27z"/>
<path d="M641 11147 c39 -27 45 -27 29 2 -6 13 -21 21 -37 21 -26 0 -26 0 8
-23z"/>
<path d="M540 11091 c0 -6 4 -13 10 -16 6 -3 7 1 4 9 -7 18 -14 21 -14 7z"/>
<path d="M758 11093 c-10 -2 -18 -8 -18 -13 0 -13 43 -20 57 -8 28 23 9 34
-39 21z"/>
<path d="M526 11051 c-4 -5 -2 -12 3 -15 5 -4 12 -2 15 3 4 5 2 12 -3 15 -5 4
-12 2 -15 -3z"/>
<path d="M850 11040 c-9 -16 -8 -18 5 -14 8 4 15 12 15 20 0 20 -7 17 -20 -6z"/>
<path d="M2025 10850 c-4 -6 -10 -8 -15 -5 -4 3 -13 -1 -19 -8 -17 -22 16 -17
36 5 9 10 13 18 10 18 -3 0 -9 -5 -12 -10z"/>
<path d="M1701 10821 c-7 -5 -11 -13 -7 -19 11 -19 -15 -25 -28 -6 -14 18 -41
11 -30 -8 5 -8 1 -9 -11 -4 -18 7 -18 6 0 -14 30 -33 63 -26 81 16 17 40 15
47 -5 35z"/>
<path d="M1798 10814 c-16 -8 -28 -21 -28 -29 0 -8 -9 -20 -20 -27 -25 -16
-26 -28 -2 -28 10 0 29 19 45 46 15 25 30 43 35 41 4 -3 16 -1 27 4 18 7 18 8
-5 8 -14 0 -37 -7 -52 -15z"/>
<path d="M1458 10594 c-3 -3 -57 -23 -119 -45 -63 -21 -107 -39 -99 -39 24 0
221 67 233 79 7 7 7 11 1 11 -6 0 -13 -3 -16 -6z"/>
<path d="M1676 10401 c-4 -7 -5 -15 -2 -18 9 -9 19 4 14 18 -4 11 -6 11 -12 0z"/>
<path d="M1637 10393 c-4 -3 -7 -13 -7 -22 1 -13 3 -13 11 2 11 19 8 33 -4 20z"/>
<path d="M1539 10348 c-11 -21 -11 -22 4 -9 17 14 23 3 10 -15 -5 -5 0 -1 9 9
17 19 16 37 -2 37 -5 0 -15 -10 -21 -22z"/>
<path d="M1101 10255 c0 -5 6 -19 14 -29 8 -11 15 -15 15 -10 0 6 -7 19 -15
30 -8 10 -14 15 -14 9z"/>
<path d="M386 10225 c-3 -8 -1 -15 4 -15 6 0 10 5 10 11 0 6 21 -7 48 -27 65
-52 72 -57 72 -51 0 8 -110 97 -120 97 -4 0 -10 -7 -14 -15z"/>
<path d="M1084 10224 c2 -10 8 -20 14 -22 17 -5 15 13 -2 27 -12 10 -14 9 -12
-5z"/>
<path d="M1126 9975 c-76 -394 -93 -470 -99 -455 -3 9 -6 5 -6 -11 -1 -15 6
-32 14 -39 8 -7 15 -26 15 -43 0 -18 7 -68 16 -112 28 -144 25 -135 40 -85 11
35 11 58 3 104 -6 33 -7 81 -4 107 5 33 1 66 -10 106 -27 91 3 251 71 383 21
41 39 84 39 95 0 10 11 25 25 32 36 19 144 66 153 67 9 1 27 27 27 39 0 5 -16
0 -35 -12 -32 -18 -162 -63 -182 -62 -5 0 -13 19 -18 43 -10 41 -12 36 -49
-157z"/>
<path d="M440 10138 c0 -17 53 -100 77 -120 9 -7 -3 19 -27 57 -53 86 -50 81
-50 63z"/>
<path d="M421 10100 c6 -16 15 -32 20 -35 4 -3 3 8 -2 25 -6 16 -15 32 -20 35
-4 3 -3 -8 2 -25z"/>
<path d="M1450 10120 c-13 -9 -13 -10 0 -9 8 1 26 5 40 9 l25 8 -25 1 c-14 0
-32 -4 -40 -9z"/>
<path d="M1882 10014 c-24 -14 -41 -28 -38 -31 4 -5 96 45 96 53 0 9 -17 2
-58 -22z"/>
<path d="M1894 9974 c-18 -14 -18 -15 4 -4 12 6 22 13 22 15 0 8 -5 6 -26 -11z"/>
<path d="M724 9799 c72 -74 136 -141 144 -149 12 -13 13 -12 1 10 -15 30 -226
248 -254 262 -11 6 38 -50 109 -123z"/>
<path d="M1832 9883 c-24 -35 -44 -73 -38 -73 2 0 15 17 27 38 13 20 27 43 32
50 16 24 -2 11 -21 -15z"/>
<path d="M1840 9818 c-11 -18 -20 -37 -20 -42 0 -12 1 -10 28 37 26 45 19 50
-8 5z"/>
<path d="M1767 9272 c-45 -46 -50 -68 -6 -26 28 26 55 64 46 64 -1 0 -20 -17
-40 -38z"/>
<path d="M43 9143 c8 -50 26 -93 39 -93 5 0 7 8 4 18 -3 9 -8 34 -12 54 -3 21
-13 43 -22 50 -14 12 -15 8 -9 -29z"/>
<path d="M140 9150 c1 -8 7 -28 16 -45 l14 -30 -5 35 c-5 35 -25 67 -25 40z"/>
<path d="M1122 9110 c-9 -37 -9 -64 -1 -103 16 -74 25 -77 39 -14 8 41 8 66
-1 103 -17 69 -24 72 -37 14z"/>
<path d="M360 8983 c0 -23 149 -148 290 -245 173 -118 154 -98 -49 54 -64 47
-144 112 -178 143 -35 31 -63 53 -63 48z"/>
<path d="M886 8569 c16 -30 75 -91 82 -85 3 4 -16 28 -42 54 -27 26 -44 40
-40 31z"/>
<path d="M1010 8499 c0 -8 7 -24 15 -35 18 -24 19 -7 0 26 -9 16 -14 19 -15 9z"/>
<path d="M13920 8456 c0 -9 5 -16 10 -16 6 0 10 4 10 9 0 6 -4 13 -10 16 -5 3
-10 -1 -10 -9z"/>
<path d="M13892 8410 c0 -14 2 -19 5 -12 2 6 2 18 0 25 -3 6 -5 1 -5 -13z"/>
<path d="M910 8400 c27 -21 40 -25 40 -12 0 9 -44 32 -58 32 -4 0 4 -9 18 -20z"/>
<path d="M1355 8333 c-24 -67 -25 -42 20 -348 13 -90 14 -120 4 -167 -9 -44
-9 -71 1 -123 25 -132 -27 -324 -131 -486 -17 -27 -29 -56 -25 -64 4 -10 -7
-21 -34 -35 -47 -24 -55 -55 -12 -48 15 3 34 8 43 12 18 8 28 -25 30 -93 1
-56 12 -24 85 254 64 242 67 257 81 450 12 160 12 228 3 340 -11 137 -37 345
-44 352 -2 2 -11 -18 -21 -44z"/>
<path d="M13824 8365 c-8 -21 6 -41 17 -24 12 19 11 39 -1 39 -6 0 -13 -7 -16
-15z"/>
<path d="M1000 8358 c0 -16 66 -51 81 -43 5 4 9 16 8 28 0 22 0 22 -10 -1 l-9
-23 -35 27 c-25 18 -35 22 -35 12z"/>
<path d="M13791 8324 c0 -11 3 -14 6 -6 3 7 2 16 -1 19 -3 4 -6 -2 -5 -13z"/>
<path d="M11158 8144 c-55 -29 -65 -94 -22 -138 22 -21 36 -26 76 -26 65 0 98
30 98 90 0 77 -77 115 -152 74z"/>
<path d="M14170 8153 c0 -6 -7 -13 -15 -15 -13 -2 -11 -9 10 -37 14 -19 25
-29 25 -22 0 7 5 9 11 5 8 -4 9 1 4 17 -9 30 -35 68 -35 52z"/>
<path d="M679 8108 c-28 -24 -61 -51 -73 -60 -11 -9 -18 -19 -15 -22 6 -6 159
109 159 119 0 13 -23 1 -71 -37z"/>
<path d="M14324 8089 c-15 -16 -16 -22 -5 -28 8 -5 10 -15 6 -22 -3 -8 7 1 24
19 17 18 31 37 31 42 0 18 -36 11 -56 -11z"/>
<path d="M14443 8095 c-18 -8 -33 -16 -33 -19 0 -8 59 15 66 25 7 11 6 11 -33
-6z"/>
<path d="M3233 8044 c-12 -32 2 -49 45 -55 25 -3 52 -15 65 -28 22 -21 22 -23
22 -405 0 -440 4 -420 -87 -432 -46 -6 -49 -9 -46 -33 l3 -26 374 -3 c237 -1
378 1 385 8 12 12 46 218 39 237 -3 7 -13 15 -24 18 -39 13 -57 -4 -79 -71
-39 -115 -70 -133 -231 -134 -95 0 -144 12 -159 40 -6 11 -10 170 -10 400 l0
381 25 24 c17 18 35 25 64 25 31 0 41 4 46 20 14 44 -3 47 -221 47 -156 -1
-207 -4 -211 -13z"/>
<path d="M7480 8032 c0 -28 3 -31 42 -37 26 -5 53 -18 70 -36 l29 -28 -3 -380
c-3 -432 1 -411 -88 -428 -39 -7 -45 -12 -45 -33 l0 -25 171 -3 c157 -2 172
-1 176 15 7 28 -2 43 -26 43 -38 0 -86 21 -97 43 -7 13 -13 142 -16 366 -3
299 -2 343 10 321 8 -14 90 -197 182 -407 170 -385 185 -412 219 -384 8 6 85
189 172 405 l159 394 3 -331 c1 -183 0 -342 -3 -355 -6 -25 -57 -52 -99 -52
-26 0 -39 -20 -30 -45 5 -13 36 -15 218 -13 l211 3 3 26 c3 24 0 27 -46 33
-91 12 -87 -8 -87 432 0 382 0 384 22 405 13 13 40 25 65 28 36 5 44 10 46 30
2 13 0 27 -5 32 -5 5 -72 6 -154 3 l-145 -7 -154 -379 c-152 -376 -154 -380
-168 -352 -9 16 -73 160 -144 319 -71 160 -140 306 -154 326 -14 20 -48 49
-76 64 -45 25 -66 29 -155 33 l-103 5 0 -31z"/>
<path d="M14415 8036 c-19 -29 -13 -49 8 -24 6 8 23 22 37 32 13 9 19 16 13
16 -7 0 -15 -5 -19 -11 -5 -8 -9 -8 -14 1 -6 9 -13 5 -25 -14z"/>
<path d="M13584 8035 c3 -8 1 -15 -5 -15 -6 0 -7 -5 -4 -11 5 -6 12 -4 20 8
14 19 11 33 -7 33 -5 0 -8 -7 -4 -15z"/>
<path d="M654 7923 c-17 -21 -40 -54 -53 -73 l-23 -35 26 30 c33 38 89 115 83
115 -2 0 -17 -17 -33 -37z"/>
<path d="M10297 7785 c-20 -8 -64 -19 -97 -26 -67 -13 -90 -30 -70 -54 7 -8
24 -15 39 -15 15 0 37 -7 49 -16 22 -15 22 -18 22 -269 0 -278 -1 -285 -60
-285 -33 0 -62 -24 -54 -45 5 -12 37 -15 190 -15 l184 0 0 24 c0 25 -16 36
-55 36 -52 0 -55 13 -55 260 l0 228 41 36 c52 44 100 62 128 46 30 -15 37 -57
17 -91 -16 -27 -16 -28 5 -40 26 -13 76 -5 101 18 10 9 23 34 29 55 13 51 -2
99 -42 133 -54 44 -126 30 -226 -45 -29 -22 -55 -40 -58 -40 -3 0 -5 27 -5 60
0 56 -2 60 -22 59 -13 0 -40 -7 -61 -14z"/>
<path d="M11220 7789 c-14 -6 -61 -19 -105 -28 -73 -16 -80 -20 -80 -42 0 -21
6 -25 43 -30 23 -3 48 -11 55 -18 9 -9 13 -80 15 -257 3 -210 1 -249 -13 -270
-8 -13 -25 -24 -38 -24 -46 0 -68 -12 -65 -34 3 -21 7 -21 188 -21 173 0 185
1 188 19 5 23 -14 36 -54 36 -58 0 -59 3 -64 354 -5 312 -6 321 -25 323 -11 1
-31 -3 -45 -8z"/>
<path d="M4614 7772 c-318 -113 -341 -558 -36 -700 47 -22 71 -27 142 -27 74
0 93 4 150 31 79 37 150 107 188 183 24 50 27 67 27 161 0 93 -3 112 -27 162
-34 73 -104 143 -176 176 -76 34 -194 41 -268 14z m194 -56 c39 -20 68 -54 94
-111 20 -44 23 -66 23 -180 0 -137 -13 -194 -57 -258 -44 -63 -144 -84 -225
-48 -82 38 -131 175 -120 335 9 132 46 218 111 257 38 23 134 26 174 5z"/>
<path d="M9280 7774 c-95 -34 -127 -78 -117 -161 4 -35 12 -53 32 -70 33 -29
94 -31 118 -5 16 17 15 20 -8 42 -18 17 -25 34 -25 63 0 73 79 119 170 98 82
-18 110 -68 110 -194 l0 -84 -104 -7 c-125 -8 -206 -27 -266 -64 -55 -34 -80
-76 -86 -144 -7 -69 23 -130 84 -173 40 -27 51 -30 125 -30 69 0 91 5 139 28
31 15 68 41 82 57 l24 30 19 -38 c33 -63 128 -99 197 -72 32 12 36 50 7 50
-11 0 -33 11 -48 24 l-28 24 -5 249 c-5 266 -8 280 -62 330 -43 40 -97 56
-208 60 -79 2 -116 -1 -150 -13z m280 -422 c0 -125 -69 -211 -176 -220 -87 -7
-124 24 -124 106 0 88 65 144 193 167 115 21 107 25 107 -53z"/>
<path d="M11989 7777 c-209 -78 -305 -334 -203 -544 32 -66 118 -146 181 -167
156 -55 320 -14 412 103 35 44 39 66 14 80 -14 8 -28 -2 -73 -49 -63 -67 -111
-86 -199 -77 -121 13 -198 104 -209 246 l-5 71 214 0 c241 0 259 4 273 61 12
47 -14 135 -57 190 -50 65 -113 93 -222 96 -58 2 -103 -2 -126 -10z m187 -62
c31 -20 61 -73 69 -122 6 -37 3 -46 -19 -68 -25 -24 -28 -25 -171 -25 l-145 0
0 28 c0 80 67 181 133 201 39 12 104 5 133 -14z"/>
<path d="M14217 7743 c-20 -62 -14 -68 8 -8 10 25 16 48 13 51 -3 2 -12 -17
-21 -43z"/>
<path d="M5580 7766 c-20 -8 -56 -17 -80 -21 -59 -10 -80 -22 -80 -45 0 -14 9
-21 38 -25 57 -10 62 -13 72 -40 6 -15 10 -113 10 -219 0 -118 4 -206 11 -227
29 -85 100 -137 199 -146 80 -8 153 16 220 72 l55 45 3 -59 3 -60 87 6 c48 3
112 8 142 12 50 6 55 8 55 31 0 22 -5 26 -49 31 -37 4 -55 12 -72 33 l-24 27
0 301 0 300 -37 -5 c-44 -5 -168 -35 -200 -48 -13 -5 -23 -17 -23 -28 0 -15 9
-22 38 -26 57 -10 62 -13 72 -40 6 -15 10 -111 10 -215 l0 -189 -36 -35 c-70
-68 -188 -86 -252 -39 -59 43 -62 62 -62 356 l0 267 -32 -1 c-18 0 -49 -6 -68
-13z"/>
<path d="M14375 7741 c-3 -2 -5 -8 -5 -12 0 -9 39 1 45 12 6 8 -32 8 -40 0z"/>
<path d="M14450 7730 c-9 -6 -10 -10 -3 -10 6 0 15 5 18 10 8 12 4 12 -15 0z"/>
<path d="M14270 7690 c0 -5 5 -10 11 -10 5 0 7 5 4 10 -3 6 -8 10 -11 10 -2 0
-4 -4 -4 -10z"/>
<path d="M14172 7621 c-14 -46 -16 -178 -2 -144 7 18 21 183 15 183 -1 0 -7
-17 -13 -39z"/>
<path d="M575 7579 c-4 -6 -5 -12 -2 -15 2 -3 7 2 10 11 7 17 1 20 -8 4z"/>
<path d="M1625 7553 c44 -70 133 -178 216 -264 107 -110 98 -92 -17 36 -44 50
-108 127 -143 173 -60 80 -91 110 -56 55z"/>
<path d="M526 7477 c-16 -29 -40 -68 -53 -87 l-24 -35 29 33 c31 35 87 131 80
137 -2 2 -16 -19 -32 -48z"/>
<path d="M13552 7505 c0 -16 2 -22 5 -12 2 9 2 23 0 30 -3 6 -5 -1 -5 -18z"/>
<path d="M566 7442 c-11 -15 -31 -43 -45 -62 -16 -21 -19 -29 -8 -21 19 15 80
101 75 106 -2 2 -12 -9 -22 -23z"/>
<path d="M6670 7451 c-15 -28 -12 -46 8 -64 16 -15 45 -17 195 -17 189 0 207
5 207 54 0 43 -14 46 -212 46 -175 0 -188 -1 -198 -19z"/>
<path d="M13479 7436 c-9 -20 -9 -32 -1 -51 14 -30 15 -45 4 -45 -5 0 -15 15
-24 32 l-15 32 -13 -24 c-9 -17 -10 -25 -1 -28 19 -6 12 -22 -9 -22 -21 0 -27
-15 -9 -25 17 -11 52 4 94 40 22 20 32 33 23 29 -25 -8 -55 40 -38 61 7 9 10
18 7 22 -4 3 -12 -6 -18 -21z"/>
<path d="M14100 7413 c0 -9 -6 -24 -14 -32 -7 -9 -17 -27 -20 -41 l-7 -25 25
28 c22 24 37 87 21 87 -3 0 -5 -8 -5 -17z"/>
<path d="M479 7323 c-13 -16 -12 -17 4 -4 16 13 21 21 13 21 -2 0 -10 -8 -17
-17z"/>
<path d="M13553 7302 c-9 -6 -6 -11 7 -20 21 -13 26 -6 12 15 -4 7 -13 9 -19
5z"/>
<path d="M14165 7280 c-10 -11 -16 -22 -13 -25 3 -3 13 4 23 15 10 11 16 22
13 25 -3 3 -13 -4 -23 -15z"/>
<path d="M468 7274 c-38 -20 -36 -28 2 -9 17 9 30 18 30 20 0 7 -1 6 -32 -11z"/>
<path d="M13646 7277 c-17 -12 -17 -14 -3 -20 11 -4 21 1 27 13 12 23 2 26
-24 7z"/>
<path d="M14053 7276 c-13 -6 -23 -18 -23 -26 0 -8 -10 -33 -21 -55 l-21 -39
23 21 c13 12 39 34 57 48 17 15 32 32 32 38 0 6 -16 -4 -35 -23 -41 -40 -46
-33 -9 16 15 19 25 33 23 33 -2 -1 -14 -6 -26 -13z"/>
<path d="M14180 7255 c-18 -19 -31 -37 -29 -40 3 -2 21 11 39 30 18 19 31 37
29 40 -3 2 -21 -11 -39 -30z"/>
<path d="M14368 7279 c-11 -6 -18 -22 -18 -41 l0 -31 25 37 c33 49 31 58 -7
35z"/>
<path d="M14418 7273 c-28 -34 -50 -75 -38 -71 7 2 23 23 37 46 26 44 27 55 1
25z"/>
<path d="M13695 7270 c-3 -6 1 -7 9 -4 18 7 21 14 7 14 -6 0 -13 -4 -16 -10z"/>
<path d="M13700 7245 c-19 -23 -8 -26 20 -5 19 15 21 20 9 20 -9 0 -22 -7 -29
-15z"/>
<path d="M431 7214 c-40 -20 -70 -38 -68 -40 6 -6 134 52 141 65 10 16 6 15
-73 -25z"/>
<path d="M14252 7223 c-10 -4 -8 -9 5 -19 27 -20 43 -17 42 9 0 20 -1 21 -8 2
-7 -17 -9 -17 -17 -4 -5 9 -15 14 -22 12z"/>
<path d="M14074 7199 c-19 -22 -19 -22 4 -10 12 6 22 16 22 21 0 15 -5 12 -26
-11z"/>
<path d="M13770 7170 c6 -11 12 -20 14 -20 2 0 2 9 -1 20 -3 11 -9 20 -15 20
-5 0 -4 -9 2 -20z"/>
<path d="M14225 7160 c-3 -5 3 -10 15 -10 12 0 18 5 15 10 -3 6 -10 10 -15 10
-5 0 -12 -4 -15 -10z"/>
<path d="M2031 7055 c47 -88 65 -114 54 -75 -9 30 -47 96 -75 130 -12 14 -2
-11 21 -55z"/>
<path d="M1055 7060 c-22 -11 -45 -18 -52 -15 -8 3 -13 -5 -13 -20 0 -14 5
-25 10 -25 6 0 10 5 10 10 0 6 3 9 8 8 4 -1 24 4 45 11 25 9 37 19 37 32 0 23
3 23 -45 -1z"/>
<path d="M908 7053 c6 -2 18 -2 25 0 6 3 1 5 -13 5 -14 0 -19 -2 -12 -5z"/>
<path d="M2099 7015 c8 -24 17 -42 19 -40 6 5 -18 74 -27 80 -5 2 -1 -15 8
-40z"/>
<path d="M916 7031 c-19 -7 -19 -8 2 -13 15 -4 22 -2 22 8 0 8 -1 14 -2 13 -2
0 -12 -4 -22 -8z"/>
<path d="M13920 7030 c0 -13 60 -13 80 0 11 7 2 10 -32 10 -27 0 -48 -4 -48
-10z"/>
<path d="M14134 7010 c0 -18 2 -18 18 -3 10 9 18 18 18 20 0 1 -8 3 -18 3 -11
0 -18 -7 -18 -20z"/>
<path d="M13436 6984 c9 -37 10 -39 17 -15 3 11 -2 26 -10 32 -12 11 -13 8 -7
-17z"/>
<path d="M2020 6939 c102 -99 110 -105 120 -89 5 8 9 22 9 30 0 8 -5 4 -10
-10 l-10 -25 -27 31 c-15 17 -52 50 -82 74 l-55 43 55 -54z"/>
<path d="M13401 6965 c0 -16 4 -37 9 -45 8 -12 10 -10 9 10 0 14 -4 34 -9 45
-7 17 -9 16 -9 -10z"/>
<path d="M14054 6944 c-18 -14 -18 -15 4 -4 12 6 22 13 22 15 0 8 -5 6 -26
-11z"/>
<path d="M1304 6919 c-3 -6 -1 -16 5 -22 9 -9 11 -7 6 8 -6 18 -4 17 14 -4 12
-13 21 -19 21 -13 0 6 3 17 6 26 5 12 0 16 -19 16 -14 0 -29 -5 -33 -11z"/>
<path d="M13323 6860 c0 -30 2 -43 4 -27 2 15 2 39 0 55 -2 15 -4 2 -4 -28z"/>
<path d="M13353 6860 c0 -30 2 -43 4 -27 2 15 2 39 0 55 -2 15 -4 2 -4 -28z"/>
<path d="M13255 6851 c-3 -5 -1 -12 5 -16 5 -3 10 1 10 9 0 18 -6 21 -15 7z"/>
<path d="M13288 6830 c-7 -24 -3 -38 8 -28 3 4 4 17 2 30 l-3 23 -7 -25z"/>
<path d="M14238 6839 c-10 -5 -23 -20 -29 -32 -10 -18 -6 -17 20 7 39 37 42
45 9 25z"/>
<path d="M849 6813 c-13 -15 -16 -21 -6 -14 15 12 17 11 18 -10 1 -18 3 -15 9
11 5 19 7 36 6 37 -1 2 -13 -9 -27 -24z"/>
<path d="M13440 6830 c0 -5 7 -7 15 -4 8 4 15 8 15 10 0 2 -7 4 -15 4 -8 0
-15 -4 -15 -10z"/>
<path d="M777 6802 c-18 -20 -23 -37 -8 -28 5 4 11 1 13 -5 2 -5 14 5 27 23
l24 33 -26 -24 c-26 -24 -39 -17 -15 7 7 7 10 12 7 12 -3 0 -13 -8 -22 -18z"/>
<path d="M14130 6778 c-19 -17 -29 -28 -22 -24 6 4 12 2 12 -4 0 -6 12 3 26
20 35 41 27 45 -16 8z"/>
<path d="M704 6788 c-4 -7 -14 -24 -23 -38 -15 -25 -15 -25 6 -7 12 10 23 27
26 38 6 22 2 25 -9 7z"/>
<path d="M640 6757 c0 -9 4 -18 9 -21 5 -4 8 1 7 9 -3 21 -16 31 -16 12z"/>
<path d="M13493 6743 c-13 -2 -23 -9 -23 -14 0 -14 26 -11 40 6 7 8 11 14 9
14 -2 -1 -14 -4 -26 -6z"/>
<path d="M1070 6574 l-35 -14 35 6 c19 4 44 10 55 15 l20 8 -20 0 c-11 0 -36
-7 -55 -15z"/>
<path d="M13757 6557 c-23 -28 -12 -36 14 -10 12 11 17 23 12 26 -5 3 -16 -4
-26 -16z"/>
<path d="M13981 6566 c-17 -20 3 -30 29 -14 11 7 20 16 20 20 0 13 -12 9 -26
-9 -13 -17 -14 -17 -8 0 7 21 1 22 -15 3z"/>
<path d="M941 6544 c-58 -15 -68 -20 -59 -30 8 -8 118 28 118 38 0 4 -1 8 -2
7 -2 0 -28 -7 -57 -15z"/>
<path d="M14328 6542 c-16 -9 -28 -20 -28 -24 0 -15 17 -8 40 17 27 29 25 31
-12 7z"/>
<path d="M14480 6485 c0 -8 5 -15 10 -15 6 0 22 -12 35 -26 l25 -27 0 30 c0
22 -6 33 -25 41 -34 16 -45 15 -45 -3z"/>
<path d="M14601 6480 c-1 -14 -6 -57 -10 -97 -5 -40 -5 -87 -1 -105 l7 -33 6
35 c13 74 16 156 8 190 -8 29 -9 31 -10 10z"/>
<path d="M14470 6456 c0 -3 16 -27 36 -53 33 -44 35 -45 32 -19 -2 18 -15 38
-35 54 -18 13 -33 22 -33 18z"/>
<path d="M498 6325 c-27 -38 -37 -45 -64 -45 -18 0 -35 -4 -38 -8 -6 -11 52
-6 86 7 15 6 34 24 43 41 11 22 23 30 41 30 30 0 28 -5 -30 -69 l-31 -33 50 5
c28 3 51 6 53 6 1 1 2 12 2 25 0 37 17 40 29 6 12 -37 28 -39 37 -5 6 25 7 25
28 8 11 -10 6 -2 -12 18 -23 26 -47 39 -83 47 -73 17 -76 16 -111 -33z"/>
<path d="M14681 6344 c0 -11 3 -14 6 -6 3 7 2 16 -1 19 -3 4 -6 -2 -5 -13z"/>
<path d="M13167 6316 c-5 -15 -6 -31 -3 -34 8 -8 18 25 14 45 -3 13 -6 10 -11
-11z"/>
<path d="M230 6275 c-13 -14 -22 -27 -19 -29 2 -2 14 10 27 25 29 36 24 38 -8
4z"/>
<path d="M249 6263 l-24 -28 28 24 c15 14 27 26 27 28 0 8 -8 1 -31 -24z"/>
<path d="M14710 6259 c-7 -11 -10 -23 -7 -25 2 -2 9 7 15 21 14 30 7 33 -8 4z"/>
<path d="M13180 6260 c0 -13 63 -101 68 -95 3 3 -7 23 -22 45 -14 22 -26 44
-26 50 0 5 -4 10 -10 10 -5 0 -10 -4 -10 -10z"/>
<path d="M13249 6215 c11 -22 58 -75 107 -120 49 -44 79 -66 67 -50 -11 17
-50 57 -85 90 -35 33 -74 74 -86 90 l-23 30 20 -40z"/>
<path d="M14749 6233 c-13 -16 -12 -17 4 -4 9 7 17 15 17 17 0 8 -8 3 -21 -13z"/>
<path d="M14879 6216 c-3 -3 -20 -7 -39 -9 -19 -2 -48 -10 -64 -19 l-28 -15
41 -16 c22 -9 41 -19 41 -22 0 -2 -14 -12 -31 -20 -17 -9 -29 -19 -26 -22 3
-2 16 1 29 8 22 12 22 11 8 -6 -9 -11 18 -1 69 26 47 24 87 49 89 56 5 16 -76
51 -89 39z"/>
<path d="M14311 6113 c-10 -26 -10 -27 4 -9 8 11 15 23 15 28 0 15 -7 8 -19
-19z"/>
<path d="M14924 6104 c-18 -14 -18 -15 4 -4 12 6 22 13 22 15 0 8 -5 6 -26
-11z"/>
<path d="M14983 6078 c0 -10 24 -12 96 -9 109 4 92 18 -25 20 -50 1 -71 -3
-71 -11z"/>
<path d="M14272 6042 c-12 -20 -31 -53 -43 -72 l-21 -35 22 25 c28 31 74 109
68 115 -2 3 -14 -12 -26 -33z"/>
<path d="M15005 6027 c-16 -7 -55 -25 -85 -41 l-55 -29 29 -8 c18 -5 50 -3 84
6 31 8 79 15 107 16 l50 1 -35 10 c-19 5 -57 7 -85 4 l-50 -6 43 26 c58 35 57
44 -3 21z"/>
<path d="M956 5961 c-48 -49 -50 -52 -48 -107 1 -49 -3 -63 -28 -97 -37 -51
-30 -63 10 -16 l29 34 1 -39 c0 -63 11 -34 21 55 7 59 18 100 40 142 16 33 29
63 27 68 -2 5 -25 -13 -52 -40z"/>
<path d="M1522 5961 c-11 -6 -9 -9 6 -13 15 -4 19 -2 15 8 -6 16 -4 16 -21 5z"/>
<path d="M13561 5960 c1 -8 4 -26 8 -40 5 -19 8 -21 13 -9 3 8 0 26 -8 40 -7
13 -13 17 -13 9z"/>
<path d="M12758 5905 c-5 -74 -3 -79 12 -24 8 28 8 49 2 63 -8 17 -10 9 -14
-39z"/>
<path d="M1916 5932 c-2 -4 -1 -14 3 -21 6 -10 10 -9 14 3 6 16 -8 32 -17 18z"/>
<path d="M12627 5919 c4 -13 8 -18 11 -10 2 7 -1 18 -6 23 -8 8 -9 4 -5 -13z"/>
<path d="M1610 5915 c-18 -22 0 -38 34 -29 36 9 43 24 11 24 -15 0 -24 4 -20
10 10 16 -11 12 -25 -5z"/>
<path d="M12728 5924 c-5 -4 -8 -15 -8 -24 0 -9 -11 -38 -25 -64 -14 -26 -20
-44 -15 -41 16 10 61 105 58 122 -2 8 -6 11 -10 7z"/>
<path d="M12641 5874 c0 -11 3 -14 6 -6 3 7 2 16 -1 19 -3 4 -6 -2 -5 -13z"/>
<path d="M1900 5869 c0 -5 5 -7 10 -4 6 3 10 8 10 11 0 2 -4 4 -10 4 -5 0 -10
-5 -10 -11z"/>
<path d="M1740 5854 c0 -24 37 -59 65 -62 27 -2 28 -1 10 9 -11 7 -32 23 -47
37 -16 14 -28 22 -28 16z"/>
<path d="M12513 5798 c-24 -11 -52 -35 -65 -55 -19 -32 -20 -41 -10 -77 8 -33
8 -43 -3 -49 -8 -4 -20 -14 -28 -22 -13 -12 -15 -8 -20 29 -4 24 -4 68 -1 97
3 30 2 50 -3 44 -4 -5 -14 -11 -22 -13 -16 -3 -81 -52 -81 -60 0 -3 10 -16 22
-29 28 -30 14 -48 -26 -33 -15 5 -25 14 -22 19 3 5 0 14 -7 20 -11 8 -17 5
-27 -14 -12 -22 -11 -27 5 -45 20 -22 11 -25 -32 -10 -27 10 -27 9 -8 -5 26
-20 122 -48 135 -40 6 4 46 10 90 14 58 6 89 15 114 32 43 29 40 35 -8 15
l-37 -15 4 29 c3 16 1 46 -3 66 -11 48 -7 57 40 83 22 12 40 26 40 32 0 11 3
12 -47 -13z"/>
<path d="M1897 5733 c-43 -18 -43 -34 0 -90 21 -27 23 -35 12 -55 -11 -21 -11
-22 4 -9 24 19 21 55 -8 89 -17 21 -21 32 -13 40 12 12 33 -10 63 -67 l17 -34
21 22 22 22 -27 23 c-37 29 -36 40 2 21 41 -21 44 -19 23 15 -9 17 -25 30 -34
30 -10 0 -23 2 -31 4 -7 2 -30 -3 -51 -11z"/>
<path d="M14320 5688 c-19 -17 -66 -58 -104 -92 -39 -33 -82 -73 -98 -87 -16
-14 -32 -39 -37 -57 -9 -29 -5 -27 59 35 38 36 93 83 122 105 29 22 62 54 73
72 11 17 23 33 27 34 10 5 10 22 1 22 -5 0 -24 -15 -43 -32z"/>
<path d="M500 5700 c20 -13 63 -13 55 0 -3 6 -21 10 -38 10 -24 0 -28 -3 -17
-10z"/>
<path d="M770 5676 c0 -2 7 -9 15 -16 13 -11 14 -10 9 4 -5 14 -24 23 -24 12z"/>
<path d="M911 5668 c-1 -10 -25 -67 -54 -127 -42 -86 -52 -116 -49 -145 6 -53
28 -45 46 18 9 30 16 59 16 66 0 7 12 50 26 96 14 47 23 90 21 97 -3 7 -6 4
-6 -5z"/>
<path d="M583 5658 c20 -7 35 -7 50 0 18 9 14 11 -28 11 -46 -1 -48 -1 -22
-11z"/>
<path d="M640 5640 c0 -5 7 -7 15 -4 8 4 15 8 15 10 0 2 -7 4 -15 4 -8 0 -15
-4 -15 -10z"/>
<path d="M14443 5570 c-35 -14 -27 -20 10 -8 17 6 34 13 36 14 8 7 -24 3 -46
-6z"/>
<path d="M1821 5534 c0 -11 3 -14 6 -6 3 7 2 16 -1 19 -3 4 -6 -2 -5 -13z"/>
<path d="M1826 5493 c-4 -9 -3 -20 1 -24 4 -4 9 3 9 17 2 28 -1 31 -10 7z"/>
<path d="M12430 5475 c14 -8 21 -14 16 -15 -5 0 0 -10 12 -23 11 -12 25 -33
31 -47 9 -23 10 -23 10 -4 1 12 -11 33 -25 48 -15 14 -22 26 -17 26 6 0 16 -6
23 -14 6 -8 18 -12 26 -9 8 3 14 0 14 -7 0 -6 -5 -8 -12 -4 -8 5 -9 2 -4 -12
4 -10 10 -32 14 -49 6 -27 7 -25 13 20 3 28 2 61 -2 75 -5 17 -8 19 -8 7 -1
-16 -4 -16 -28 -4 -16 8 -41 17 -58 21 l-30 6 25 -15z"/>
<path d="M14315 5471 c-7 -22 0 -41 16 -41 11 0 12 30 0 49 -7 11 -10 9 -16
-8z"/>
<path d="M14548 5463 c7 -3 16 -2 19 1 4 3 -2 6 -13 5 -11 0 -14 -3 -6 -6z"/>
<path d="M14598 5433 c12 -2 32 -2 45 0 12 2 2 4 -23 4 -25 0 -35 -2 -22 -4z"/>
<path d="M14623 5413 c15 -2 39 -2 55 0 15 2 2 4 -28 4 -30 0 -43 -2 -27 -4z"/>
<path d="M13922 5297 c-87 -111 -120 -140 -244 -217 -33 -20 -48 -36 -48 -50
0 -27 16 -23 134 38 111 57 146 87 187 160 29 54 72 172 65 179 -2 2 -44 -47
-94 -110z"/>
<path d="M12220 5390 c0 -5 5 -10 11 -10 5 0 7 5 4 10 -3 6 -8 10 -11 10 -2 0
-4 -4 -4 -10z"/>
<path d="M14093 5370 c-24 -10 -43 -24 -43 -30 0 -15 4 -13 57 20 54 34 48 39
-14 10z"/>
<path d="M12201 5370 c0 -8 4 -22 9 -30 12 -18 12 -2 0 25 -6 13 -9 15 -9 5z"/>
<path d="M14555 5370 c3 -5 14 -10 23 -10 15 0 15 2 2 10 -20 13 -33 13 -25 0z"/>
<path d="M14625 5369 c9 -13 87 -32 93 -22 4 5 14 12 22 15 8 3 -15 7 -52 9
-36 2 -65 1 -63 -2z"/>
<path d="M14738 5333 c6 -2 18 -2 25 0 6 3 1 5 -13 5 -14 0 -19 -2 -12 -5z"/>
<path d="M12150 5310 c0 -19 3 -21 12 -12 9 9 9 15 0 24 -9 9 -12 7 -12 -12z"/>
<path d="M634 5300 c-5 -5 -27 -14 -49 -19 l-40 -9 33 -1 c18 -1 43 4 55 10
22 12 22 12 3 -10 -11 -11 -16 -24 -12 -29 9 -9 57 48 50 60 -7 11 -28 10 -40
-2z"/>
<path d="M12640 5298 l-35 -10 30 -12 c28 -12 29 -13 10 -24 -37 -21 12 -14
55 8 43 22 50 34 24 44 -20 8 -41 6 -84 -6z"/>
<path d="M12120 5279 c0 -5 5 -7 10 -4 6 3 10 8 10 11 0 2 -4 4 -10 4 -5 0
-10 -5 -10 -11z"/>
<path d="M12770 5230 c37 -12 82 -12 75 0 -3 6 -27 10 -53 9 -38 -1 -42 -2
-22 -9z"/>
<path d="M747 5202 c-15 -16 -27 -33 -27 -40 0 -16 54 -15 109 2 64 19 64 36
1 36 -29 0 -49 4 -45 9 14 23 -15 18 -38 -7z"/>
<path d="M593 5203 c9 -2 23 -2 30 0 6 3 -1 5 -18 5 -16 0 -22 -2 -12 -5z"/>
<path d="M12728 5184 c-32 -17 -38 -39 -9 -29 10 3 39 10 62 14 43 9 44 9 9
10 -27 1 -31 4 -20 11 26 17 -10 12 -42 -6z"/>
<path d="M4877 5159 c-111 -18 -159 -99 -95 -158 20 -19 45 -26 188 -50 94
-16 116 -57 43 -82 -50 -16 -137 -5 -196 26 -47 24 -50 24 -63 8 -19 -25 -13
-35 37 -60 116 -60 280 -47 336 26 20 26 16 78 -9 100 -27 26 -64 37 -161 51
-89 11 -120 24 -115 48 8 44 122 56 198 21 42 -19 45 -19 57 -2 19 25 12 36
-38 54 -58 21 -123 28 -182 18z"/>
<path d="M6303 5160 c-103 -22 -163 -78 -171 -160 -9 -93 46 -157 158 -186
105 -27 213 -4 278 59 85 82 53 217 -63 268 -49 22 -146 31 -202 19z m168 -83
c18 -12 40 -34 47 -47 27 -52 -8 -128 -68 -152 -14 -5 -51 -9 -82 -9 -96 0
-148 41 -148 116 0 77 51 114 156 115 47 0 69 -5 95 -23z"/>
<path d="M8360 5164 c-125 -24 -192 -86 -192 -179 0 -109 95 -180 242 -180
147 0 242 71 242 180 0 101 -79 166 -217 179 -27 2 -61 2 -75 0z m147 -84 c39
-23 55 -52 55 -96 0 -73 -56 -115 -153 -115 -73 -1 -117 22 -143 74 -16 34
-17 42 -4 75 21 56 67 82 147 82 48 0 75 -5 98 -20z"/>
<path d="M10323 5160 c-61 -13 -118 -45 -145 -82 -18 -26 -23 -46 -23 -93 0
-47 5 -67 23 -93 26 -36 82 -68 139 -80 31 -6 39 -13 41 -34 8 -65 95 -95 176
-60 47 21 52 27 38 50 -7 10 -14 10 -38 -3 -37 -19 -88 -19 -104 0 -18 22 -5
45 27 45 72 1 164 75 177 144 14 76 -34 156 -114 190 -47 19 -144 27 -197 16z
m168 -83 c18 -12 40 -34 47 -47 27 -52 -8 -128 -68 -152 -14 -5 -51 -9 -82 -9
-96 0 -148 41 -148 116 0 77 51 114 156 115 47 0 69 -5 95 -23z"/>
<path d="M3680 4980 l0 -170 45 0 45 0 0 70 0 70 110 0 110 0 0 25 0 25 -110
0 -110 0 0 45 0 45 125 0 125 0 0 30 0 30 -170 0 -170 0 0 -170z"/>
<path d="M4236 4980 l-87 -170 46 0 c42 0 47 3 62 35 l17 35 103 0 103 0 17
-35 c15 -32 20 -35 60 -35 24 0 43 2 43 5 0 3 -37 79 -82 170 l-83 165 -56 0
-57 0 -86 -170z m184 40 c22 -44 40 -82 40 -85 0 -3 -36 -5 -80 -5 -46 0 -80
4 -80 10 0 10 72 160 77 160 2 0 21 -36 43 -80z"/>
<path d="M5300 4980 l0 -170 45 0 45 0 0 75 0 75 115 0 115 0 0 -75 0 -75 45
0 45 0 0 170 0 170 -45 0 -45 0 0 -65 0 -65 -115 0 -115 0 0 65 0 65 -45 0
-45 0 0 -170z"/>
<path d="M5880 4980 l0 -170 45 0 45 0 0 170 0 170 -45 0 -45 0 0 -170z"/>
<path d="M6780 4980 l0 -170 40 0 40 0 0 130 c0 72 3 130 8 130 4 0 56 -59
117 -130 l110 -130 52 0 53 0 0 170 0 170 -40 0 -39 0 -3 -127 -3 -128 -110
128 -109 127 -58 0 -58 0 0 -170z"/>
<path d="M7610 4979 l0 -171 163 4 c180 4 217 14 235 66 12 36 -7 87 -37 97
-26 8 -27 22 -2 30 28 9 44 61 28 93 -21 45 -49 52 -224 52 l-163 0 0 -171z
m296 106 c18 -25 18 -31 -6 -55 -17 -17 -33 -20 -110 -20 l-90 0 0 51 0 51 96
-4 c80 -3 99 -7 110 -23z m-18 -126 c16 -5 32 -18 34 -27 13 -53 -25 -72 -143
-72 l-79 0 0 55 0 55 79 0 c43 0 92 -5 109 -11z"/>
<path d="M8812 5031 c3 -135 13 -158 84 -198 56 -32 181 -32 244 0 69 34 90
84 90 214 l0 103 -45 0 -45 0 0 -94 c0 -110 -12 -151 -51 -171 -61 -32 -160
-9 -179 41 -6 14 -10 70 -10 125 l0 99 -46 0 -46 0 4 -119z"/>
<path d="M9370 5120 l0 -30 75 0 75 0 0 -140 0 -140 45 0 45 0 0 140 0 140 70
0 70 0 0 30 0 30 -190 0 -190 0 0 -30z"/>
<path d="M9900 4980 l0 -170 45 0 45 0 0 170 0 170 -45 0 -45 0 0 -170z"/>
<path d="M10792 5037 c5 -135 20 -170 88 -204 35 -18 61 -23 122 -23 90 0 130
14 173 59 30 32 30 34 33 157 l4 124 -46 0 -46 0 0 -109 c0 -102 -2 -112 -24
-138 -22 -25 -30 -28 -90 -28 -58 0 -69 3 -93 28 -26 26 -28 33 -31 137 l-4
110 -45 0 -46 0 5 -113z"/>
<path d="M11370 4980 l0 -170 180 0 180 0 0 30 0 30 -135 0 -135 0 0 50 0 50
120 0 c113 0 120 1 120 20 0 19 -7 20 -120 20 l-120 0 0 45 0 45 130 0 130 0
0 25 0 25 -175 0 -175 0 0 -170z"/>
<path d="M960 5115 c0 -3 10 -25 21 -48 24 -45 89 -135 89 -122 0 5 -7 17 -17
27 -22 24 -14 30 28 18 59 -17 76 -10 25 10 -27 11 -54 25 -60 31 -8 8 -3 7
14 -1 18 -9 22 -9 14 -1 -6 7 -19 14 -29 15 -10 1 -19 11 -21 20 -1 10 -6 21
-10 24 -4 4 -4 -2 -1 -13 5 -14 -2 -10 -23 13 -16 18 -30 30 -30 27z"/>
<path d="M13533 4988 c-22 -29 -23 -36 -3 -31 11 3 20 14 20 24 0 22 -4 24
-17 7z"/>
<path d="M1870 4838 c0 -9 5 -20 10 -23 13 -8 13 5 0 25 -8 13 -10 13 -10 -2z"/>
<path d="M1843 4785 c2 -16 9 -31 17 -33 7 -3 10 0 6 6 -3 6 -1 12 5 14 6 2 1
12 -11 23 l-21 19 4 -29z"/>
<path d="M1465 4665 l-30 -14 35 6 c40 7 45 9 33 16 -4 3 -21 -1 -38 -8z"/>
<path d="M13822 4590 c0 -14 2 -19 5 -12 2 6 2 18 0 25 -3 6 -5 1 -5 -13z"/>
<path d="M11881 4585 c0 -11 6 -42 14 -70 l15 -50 -6 49 c-3 27 -9 58 -14 70
-8 20 -9 20 -9 1z"/>
<path d="M13903 4568 c-17 -18 -36 -44 -43 -57 l-13 -25 -18 36 c-10 20 -26
39 -36 42 -16 6 -16 6 0 -12 9 -10 17 -26 17 -34 0 -33 34 -77 65 -82 16 -3
34 -6 39 -5 5 0 12 -4 15 -9 3 -5 17 11 30 36 16 33 19 42 7 33 -9 -7 -23 -11
-31 -7 -9 3 -15 0 -15 -9 0 -8 -4 -15 -10 -15 -5 0 -10 2 -10 4 0 10 30 60 40
66 14 9 18 62 5 67 -6 2 -25 -11 -42 -29z"/>
<path d="M1621 4562 c-6 -12 -11 -27 -11 -34 0 -7 7 0 15 16 9 16 13 31 11 33
-2 3 -9 -4 -15 -15z"/>
<path d="M14048 4538 c-41 -80 -45 -79 62 -27 55 27 100 51 100 54 0 3 -8 1
-19 -4 -12 -7 -30 -7 -52 -1 -57 17 -73 12 -91 -22z"/>
<path d="M1582 4533 c-10 -27 -10 -27 -11 -4 -1 29 -6 26 -14 -9 -5 -20 -2
-26 12 -27 13 -1 21 7 25 29 8 41 1 47 -12 11z"/>
<path d="M11810 4519 c-6 -11 -10 -25 -8 -30 2 -5 8 4 15 21 13 34 9 40 -7 9z"/>
<path d="M11837 4520 c-4 -14 -6 -41 -6 -60 1 -34 2 -33 10 10 10 51 7 89 -4
50z"/>
<path d="M1497 4486 c-5 -21 -6 -40 -3 -43 9 -10 18 24 14 54 -3 26 -4 25 -11
-11z"/>
<path d="M14207 4508 c-48 -10 -107 -40 -131 -67 -12 -13 -32 -21 -55 -22
l-36 -1 33 -11 c38 -12 86 7 162 62 36 26 49 30 111 29 38 0 72 2 76 6 3 3 -7
6 -23 7 -16 0 -45 1 -64 3 -19 1 -52 -1 -73 -6z"/>
<path d="M14625 4465 c-27 -14 -39 -22 -25 -19 29 8 80 32 80 39 0 7 0 7 -55
-20z"/>
<path d="M14530 4460 c-38 -13 -44 -17 -20 -13 35 5 104 31 85 32 -5 0 -35 -9
-65 -19z"/>
<path d="M1456 4461 c-3 -4 1 -17 8 -27 13 -17 14 -17 9 9 -6 29 -9 32 -17 18z"/>
<path d="M14488 4413 c7 -3 16 -2 19 1 4 3 -2 6 -13 5 -11 0 -14 -3 -6 -6z"/>
<path d="M13270 4258 c-40 -9 -59 -21 -60 -39 0 -13 187 28 196 42 7 12 -78
10 -136 -3z"/>
<path d="M13085 4225 c-48 -10 -54 -13 -30 -16 51 -5 89 1 105 16 18 18 11 18
-75 0z"/>
<path d="M11847 4065 c3 -82 7 -152 9 -154 7 -8 2 204 -6 254 -5 31 -6 -6 -3
-100z"/>
<path d="M11156 4181 c-4 -7 -5 -15 -2 -18 9 -9 19 4 14 18 -4 11 -6 11 -12 0z"/>
<path d="M11127 4151 c-4 -17 -3 -21 5 -13 5 5 8 16 6 23 -3 8 -7 3 -11 -10z"/>
<path d="M11068 4119 c-10 -5 -18 -17 -18 -25 0 -19 16 -10 30 17 12 22 11 22
-12 8z"/>
<path d="M11020 4079 c0 -5 5 -7 10 -4 6 3 10 8 10 11 0 2 -4 4 -10 4 -5 0
-10 -5 -10 -11z"/>
<path d="M10750 3942 c-22 -19 -30 -31 -22 -36 7 -4 12 -1 12 9 0 8 11 20 25
25 14 5 25 14 25 20 0 14 -2 13 -40 -18z"/>
<path d="M10820 3926 c0 -2 8 -10 18 -17 15 -13 16 -12 3 4 -13 16 -21 21 -21
13z"/>
<path d="M11284 3863 c16 -3 38 -14 48 -26 11 -12 17 -15 13 -7 -4 8 1 6 9 -4
17 -21 20 -15 10 22 -6 19 -12 22 -58 21 -32 -1 -40 -4 -22 -6z"/>
<path d="M10792 3845 c-11 -13 -9 -15 8 -15 11 0 20 7 20 15 0 19 -11 19 -28
0z"/>
<path d="M12760 3845 c-6 -8 -10 -21 -8 -31 2 -11 7 -6 15 15 13 34 11 38 -7
16z"/>
<path d="M12990 3802 l-45 -44 37 19 c21 10 38 23 38 29 0 6 10 19 23 27 14
10 17 16 7 15 -8 -1 -35 -21 -60 -46z"/>
<path d="M13095 3810 c-38 -22 -67 -40 -63 -40 13 0 112 47 133 64 36 28 2 16
-70 -24z"/>
<path d="M13157 3810 c-38 -22 -72 -40 -77 -40 -5 0 -12 -4 -15 -10 -4 -7 2
-7 19 -1 35 14 135 71 142 82 8 13 5 12 -69 -31z"/>
<path d="M13383 3833 c-18 -9 -33 -20 -33 -25 0 -5 18 1 40 12 22 11 40 23 40
25 0 8 -13 5 -47 -12z"/>
<path d="M13440 3842 c0 -7 -26 -25 -57 -41 -32 -17 -54 -30 -50 -31 13 0 105
49 112 60 4 6 4 14 1 17 -3 4 -6 1 -6 -5z"/>
<path d="M10885 3830 c-3 -5 -1 -10 4 -10 6 0 11 5 11 10 0 6 -2 10 -4 10 -3
0 -8 -4 -11 -10z"/>
<path d="M13055 3820 c-16 -11 -25 -20 -19 -20 11 0 64 39 54 40 -3 0 -18 -9
-35 -20z"/>
<path d="M12188 3819 c-12 -6 -18 -22 -18 -44 0 -19 -4 -35 -10 -35 -5 0 -10
11 -10 24 0 14 -4 27 -8 30 -15 9 -35 -12 -29 -29 6 -13 3 -15 -13 -10 -14 4
-20 2 -18 -7 5 -23 22 -28 63 -22 39 6 81 23 59 24 -20 0 -24 43 -7 62 18 20
16 22 -9 7z"/>
<path d="M11469 3800 c-21 -17 -22 -19 -6 -20 10 0 15 -4 12 -10 -3 -5 -2 -10
3 -10 9 0 33 25 46 48 12 20 -29 14 -55 -8z"/>
<path d="M13252 3788 c-18 -11 -31 -22 -30 -24 9 -8 45 9 56 27 7 10 11 19 10
18 -2 0 -18 -10 -36 -21z"/>
<path d="M11560 3790 c-13 -9 -13 -10 0 -10 8 0 22 5 30 10 13 9 13 10 0 10
-8 0 -22 -5 -30 -10z"/>
<path d="M11550 3745 c-27 -29 -13 -33 21 -7 13 11 18 21 12 25 -6 4 -21 -5
-33 -18z"/>
<path d="M10687 3753 c-10 -9 -8 -35 2 -29 4 3 11 -35 15 -84 7 -99 24 -164
25 -99 1 20 -2 77 -5 127 -7 86 -16 107 -37 85z"/>
<path d="M11883 3728 c-19 -24 -24 -38 -15 -38 5 0 14 11 20 25 13 27 10 32
-5 13z"/>
<path d="M10782 3623 c5 -93 11 -123 44 -213 33 -93 51 -126 62 -116 1 2 -9
34 -23 72 -46 120 -65 206 -66 287 0 47 -5 77 -11 77 -7 0 -9 -36 -6 -107z"/>
<path d="M13175 3720 c3 -5 13 -10 21 -10 8 0 12 5 9 10 -3 6 -13 10 -21 10
-8 0 -12 -4 -9 -10z"/>
<path d="M11925 3676 c-15 -19 -25 -41 -23 -48 3 -7 17 6 33 30 35 52 27 66
-10 18z"/>
<path d="M10982 3660 c0 -14 2 -19 5 -12 2 6 2 18 0 25 -3 6 -5 1 -5 -13z"/>
<path d="M12605 3564 c-57 -26 -69 -29 -59 -12 4 7 3 8 -5 4 -16 -10 5 -37 24
-30 8 3 12 -1 12 -13 -2 -15 4 -17 33 -15 35 3 80 35 67 48 -3 3 -22 -4 -42
-16 -20 -12 -39 -19 -43 -15 -4 4 1 12 12 19 33 20 61 44 56 49 -3 2 -27 -6
-55 -19z"/>
<path d="M12720 3515 c-14 -16 -3 -20 19 -6 8 5 9 11 3 15 -5 3 -15 -1 -22 -9z"/>
<path d="M11316 3473 c-6 -14 -5 -15 5 -6 7 7 10 15 7 18 -3 3 -9 -2 -12 -12z"/>
<path d="M11483 3483 c9 -2 25 -2 35 0 9 3 1 5 -18 5 -19 0 -27 -2 -17 -5z"/>
<path d="M12687 3473 c-3 -5 15 -8 39 -8 24 0 44 3 44 7 0 10 -77 10 -83 1z"/>
<path d="M10706 3415 c-3 -9 -6 -29 -6 -43 0 -27 1 -27 17 6 11 22 13 36 6 43
-7 7 -12 5 -17 -6z"/>
<path d="M11271 3388 c-10 -24 -21 -53 -25 -65 -4 -12 -29 -52 -56 -90 -70
-95 -68 -109 6 -41 50 46 69 83 80 155 3 26 11 56 16 66 5 9 6 17 3 17 -3 0
-14 -19 -24 -42z"/>
<path d="M10670 3391 c0 -6 4 -13 10 -16 6 -3 7 1 4 9 -7 18 -14 21 -14 7z"/>
<path d="M12858 3393 c7 -3 16 -2 19 1 4 3 -2 6 -13 5 -11 0 -14 -3 -6 -6z"/>
<path d="M10634 3325 c-13 -21 -15 -31 -6 -50 7 -16 8 -26 1 -30 -5 -4 -15 8
-21 26 -10 30 -12 31 -24 14 -10 -14 -11 -22 -3 -32 9 -10 7 -13 -9 -13 -15 0
-20 -6 -19 -20 2 -29 31 -25 83 10 44 31 56 44 31 34 -8 -3 -18 6 -25 20 -9
21 -8 28 5 41 8 9 13 18 10 21 -3 3 -13 -6 -23 -21z"/>
<path d="M10896 3251 c-4 -7 -5 -15 -2 -18 9 -9 19 4 14 18 -4 11 -6 11 -12 0z"/>
<path d="M9000 3205 c-10 -27 -6 -45 11 -45 5 0 9 11 9 25 0 30 9 31 41 6 25
-19 146 -84 214 -114 l40 -17 -25 19 c-33 27 -236 142 -260 148 -14 4 -22 -2
-30 -22z"/>
<path d="M10650 3202 c0 -7 33 -31 43 -32 20 0 0 34 -20 35 -13 1 -23 0 -23
-3z"/>
<path d="M10905 3190 c-3 -5 -1 -10 4 -10 6 0 11 5 11 10 0 6 -2 10 -4 10 -3
0 -8 -4 -11 -10z"/>
<path d="M10761 3161 c-9 -6 -10 -11 -2 -15 13 -8 31 1 31 15 0 11 -11 11 -29
0z"/>
<path d="M13258 3150 c-90 -19 -108 -25 -108 -39 0 -8 229 45 239 55 9 9 -47
2 -131 -16z"/>
<path d="M10915 3141 c3 -10 12 -38 19 -62 11 -33 14 -38 15 -19 1 36 -18 100
-30 100 -6 0 -8 -8 -4 -19z"/>
<path d="M10810 3125 c-14 -16 -10 -18 14 -9 9 3 16 10 16 15 0 14 -16 11 -30
-6z"/>
<path d="M11272 3120 c0 -14 2 -19 5 -12 2 6 2 18 0 25 -3 6 -5 1 -5 -13z"/>
<path d="M11609 3099 c-23 -19 -23 -20 -2 -10 12 6 25 16 28 21 10 16 -1 12
-26 -11z"/>
<path d="M9100 3082 c0 -27 135 -182 195 -225 18 -12 5 6 -30 44 -34 35 -83
92 -109 127 -49 63 -56 69 -56 54z"/>
<path d="M11402 3073 c-7 -3 -18 -17 -25 -32 l-11 -26 -4 29 -4 29 -18 -29
c-16 -23 -20 -25 -25 -12 -4 10 -13 14 -22 11 -11 -4 -8 -10 14 -24 28 -19 83
-26 83 -11 0 4 11 20 25 36 14 16 25 31 25 33 0 4 -23 2 -38 -4z"/>
<path d="M11448 3053 c-8 -10 -19 -25 -23 -33 -8 -13 -7 -13 9 -1 16 14 41 51
33 51 -2 0 -11 -8 -19 -17z"/>
<path d="M13145 3058 c-16 -5 -36 -12 -44 -14 -8 -2 -12 -7 -9 -9 2 -3 29 4
59 14 55 20 49 28 -6 9z"/>
<path d="M12906 3051 c-3 -5 1 -14 9 -21 12 -10 21 -10 38 -1 21 11 21 11 -5
8 -19 -3 -25 0 -21 10 6 14 -13 18 -21 4z"/>
<path d="M9070 3042 c0 -23 37 -86 66 -112 18 -16 23 -18 13 -5 -9 11 -31 45
-48 75 -17 30 -31 49 -31 42z"/>
<path d="M12570 3024 c0 -8 5 -12 10 -9 6 3 10 10 10 16 0 5 -4 9 -10 9 -5 0
-10 -7 -10 -16z"/>
<path d="M13144 3004 c-18 -14 -18 -15 4 -4 12 6 22 13 22 15 0 8 -5 6 -26
-11z"/>
<path d="M12822 2994 c10 -10 20 -16 22 -13 3 3 -5 11 -17 18 -21 13 -21 12
-5 -5z"/>
<path d="M13038 2950 c-20 -11 -39 -24 -43 -29 -3 -6 15 2 40 15 25 14 45 28
45 30 0 6 -1 5 -42 -16z"/>
<path d="M13022 2871 c-95 -57 -202 -132 -222 -156 -7 -9 35 18 94 59 60 42
132 90 162 107 47 26 63 39 51 39 -2 0 -40 -22 -85 -49z"/>
<path d="M11139 2850 c-46 -24 -93 -60 -77 -60 11 0 128 62 134 71 12 19 -1
17 -57 -11z"/>
<path d="M12817 2821 c-41 -26 -46 -36 -10 -17 17 9 35 20 38 26 8 13 6 12
-28 -9z"/>
<path d="M12062 2774 c-12 -8 -22 -22 -22 -30 0 -8 -4 -14 -10 -14 -5 0 -10 7
-10 16 0 14 -3 14 -15 4 -20 -17 -8 -28 35 -35 19 -3 30 -3 23 1 -14 6 -7 31
15 57 19 21 13 22 -16 1z"/>
<path d="M12165 2768 c-13 -14 -14 -18 -4 -10 9 7 22 11 29 10 7 -2 15 4 17
12 4 12 3 12 -5 1 -7 -10 -11 -10 -14 -1 -2 7 -11 3 -23 -12z"/>
<path d="M9400 2777 c0 -3 53 -43 118 -88 165 -117 272 -201 380 -297 50 -46
92 -79 92 -74 0 13 -133 138 -215 204 -119 94 -375 268 -375 255z"/>
<path d="M12926 2685 c8 -20 12 -40 9 -45 -4 -6 -2 -10 4 -10 6 0 7 -7 4 -17
-11 -29 14 -5 27 26 11 28 10 32 -16 55 -39 34 -46 32 -28 -9z"/>
<path d="M11225 2685 c-17 -13 -27 -26 -24 -30 4 -3 20 5 35 19 38 32 27 42
-11 11z"/>
<path d="M12013 2660 c8 -20 14 -25 19 -17 11 17 10 21 -11 34 -18 11 -18 10
-8 -17z"/>
<path d="M11155 2666 c-11 -8 -24 -12 -31 -9 -6 2 -14 -2 -17 -11 -11 -27 21
-25 49 5 30 31 29 38 -1 15z"/>
<path d="M11243 2643 c-50 -63 -67 -109 -33 -88 10 6 74 125 67 125 -2 0 -17
-17 -34 -37z"/>
<path d="M12050 2571 c0 -14 18 -23 31 -15 8 4 7 9 -2 15 -18 11 -29 11 -29 0z"/>
<path d="M12715 2469 c-108 -76 -225 -135 -283 -144 -63 -11 -69 -18 -22 -26
37 -6 54 -3 96 17 28 13 56 24 62 24 7 0 11 5 10 12 -3 12 58 37 142 59 25 6
39 14 33 16 -7 3 -29 -1 -49 -7 -19 -7 -37 -10 -40 -8 -3 4 77 63 150 110 6 4
8 9 6 11 -3 3 -50 -26 -105 -64z"/>
<path d="M10771 2509 c-15 -26 -6 -38 14 -18 8 8 11 19 7 26 -6 9 -11 6 -21
-8z"/>
<path d="M12070 2521 c-23 -7 -23 -8 -5 -13 11 -3 26 1 33 9 14 14 10 15 -28
4z"/>
<path d="M12994 2510 c0 -15 7 -20 26 -20 33 0 43 9 29 27 -18 21 -55 16 -55
-7z"/>
<path d="M10979 2489 c-7 -4 -17 -5 -21 -3 -4 3 -5 -2 -2 -10 4 -10 18 -14 46
-13 22 1 35 3 29 5 -6 2 -9 7 -6 12 7 11 -30 19 -46 9z"/>
<path d="M13074 2441 c3 -5 16 -11 28 -14 22 -6 22 -5 4 8 -22 17 -40 20 -32
6z"/>
<path d="M13020 2431 l-25 -7 29 -8 c15 -4 31 -5 34 -1 3 3 0 5 -7 5 -7 0 -9
5 -6 10 3 6 5 10 3 9 -2 -1 -14 -4 -28 -8z"/>
<path d="M12868 2406 c-15 -13 -24 -27 -21 -30 11 -11 19 -6 36 24 22 36 20
36 -15 6z"/>
<path d="M12695 2341 c-3 -5 -1 -12 5 -16 5 -3 10 1 10 9 0 18 -6 21 -15 7z"/>
<path d="M12780 2296 c0 -2 11 -11 25 -20 25 -17 25 -16 13 4 -11 17 -38 29
-38 16z"/>
<path d="M12623 2232 c-74 -48 -86 -62 -55 -62 24 0 154 89 147 100 -9 15 -13
13 -92 -38z"/>
<path d="M10362 2163 c19 -88 40 -124 46 -79 4 35 -26 131 -47 150 -17 15 -17
12 1 -71z"/>
<path d="M12817 2239 c7 -7 15 -10 18 -7 3 3 -2 9 -12 12 -14 6 -15 5 -6 -5z"/>
<path d="M10245 2155 c9 -55 24 -80 24 -40 0 17 -7 41 -15 55 -15 24 -15 24
-9 -15z"/>
<path d="M11580 2100 c0 -5 5 -10 10 -10 6 0 10 5 10 10 0 6 -4 10 -10 10 -5
0 -10 -4 -10 -10z"/>
<path d="M11617 2103 c-10 -9 -9 -23 1 -23 5 0 9 7 9 15 0 17 -1 18 -10 8z"/>
<path d="M12025 2100 c3 -5 8 -10 11 -10 2 0 4 5 4 10 0 6 -5 10 -11 10 -5 0
-7 -4 -4 -10z"/>
<path d="M12345 2100 c3 -5 8 -10 11 -10 2 0 4 5 4 10 0 6 -5 10 -11 10 -5 0
-7 -4 -4 -10z"/>
<path d="M12095 2081 c-5 -9 55 -25 62 -17 2 2 -10 8 -26 14 -17 6 -33 7 -36
3z"/>
<path d="M12360 2084 c-9 -3 -22 -14 -29 -26 -11 -19 -11 -20 4 -14 10 3 23 2
30 -4 8 -6 40 -10 72 -8 l58 3 -33 18 c-27 14 -36 16 -48 6 -19 -16 -30 -4
-14 16 10 13 9 15 -6 14 -11 -1 -26 -3 -34 -5z"/>
<path d="M12435 2010 c-17 -7 -15 -9 13 -9 17 -1 32 4 32 9 0 12 -17 12 -45 0z"/>
<path d="M11943 1957 c-3 -6 -1 -7 5 -3 5 3 12 1 14 -5 2 -6 16 -9 32 -7 27 3
27 3 -8 14 -25 8 -39 8 -43 1z"/>
<path d="M11710 1940 c0 -9 40 -30 56 -30 17 0 -11 20 -29 21 -20 1 -20 2 3 9
l25 8 -27 1 c-16 1 -28 -4 -28 -9z"/>
<path d="M12608 1933 c7 -3 16 -2 19 1 4 3 -2 6 -13 5 -11 0 -14 -3 -6 -6z"/>
<path d="M12040 1910 c0 -5 14 -10 32 -10 36 0 35 4 -4 14 -17 4 -28 2 -28 -4z"/>
<path d="M9903 1699 c15 -9 251 -89 262 -89 3 0 5 4 5 9 0 11 -238 91 -267 91
-17 -1 -17 -1 0 -11z"/>
<path d="M9890 1646 c20 -7 51 -16 70 -20 l35 -6 -35 14 c-20 7 -51 16 -70 20
l-35 6 35 -14z"/>
<path d="M10008 1613 c7 -3 16 -2 19 1 4 3 -2 6 -13 5 -11 0 -14 -3 -6 -6z"/>
<path d="M9643 1593 c32 -2 81 -2 110 0 29 2 3 3 -58 3 -60 0 -84 -1 -52 -3z"/>
<path d="M9838 1583 c18 -2 45 -2 60 0 15 2 0 4 -33 4 -33 0 -45 -2 -27 -4z"/>
<path d="M9693 1533 c37 -2 97 -2 135 0 37 2 6 3 -68 3 -74 0 -105 -1 -67 -3z"/>
<path d="M9543 1523 c9 -2 25 -2 35 0 9 3 1 5 -18 5 -19 0 -27 -2 -17 -5z"/>
<path d="M9318 1373 c34 -2 88 -2 120 0 31 2 3 3 -63 3 -66 0 -92 -1 -57 -3z"/>
<path d="M9370 1248 c-116 -10 -231 -29 -211 -36 21 -7 263 18 316 32 57 16
43 17 -105 4z"/>
<path d="M8883 1243 c9 -14 100 -23 133 -13 l29 8 -30 1 c-16 1 -54 4 -84 8
-36 4 -52 3 -48 -4z"/>
</g>
</svg>
